<svg xmlns="http://www.w3.org/2000/svg" viewBox="0 0 1000 470" role="img" aria-label="PerfLens wire protocol: 5-byte header plus payload">
  <title>PerfLens wire protocol</title>
  <defs>
    <linearGradient id="wbg" x1="0" y1="0" x2="0" y2="1">
      <stop offset="0" stop-color="#0b0f14"/>
      <stop offset="1" stop-color="#111826"/>
    </linearGradient>
    <linearGradient id="lenByte" x1="0" y1="0" x2="0" y2="1">
      <stop offset="0" stop-color="#1e3a5f"/>
      <stop offset="1" stop-color="#0d1f36"/>
    </linearGradient>
    <linearGradient id="flagByte" x1="0" y1="0" x2="0" y2="1">
      <stop offset="0" stop-color="#5a3a20"/>
      <stop offset="1" stop-color="#2d1c0e"/>
    </linearGradient>
    <linearGradient id="payloadFill" x1="0" y1="0" x2="1" y2="0">
      <stop offset="0" stop-color="#1a3a1e"/>
      <stop offset="1" stop-color="#0e1f11"/>
    </linearGradient>
    <marker id="markGuide" viewBox="0 0 10 10" refX="5" refY="5" markerWidth="5" markerHeight="5" orient="auto">
      <circle cx="5" cy="5" r="2" fill="#6e7681"/>
    </marker>
  </defs>

  <rect width="1000" height="470" fill="url(#wbg)"/>

  <!-- Title -->
  <text x="40" y="40" font-family="system-ui, -apple-system, Segoe UI, sans-serif"
        font-size="20" font-weight="700" fill="#f0f6fc">Wire protocol · 5-byte header + payload</text>
  <text x="40" y="62" font-family="ui-monospace, 'SF Mono', Menlo, monospace"
        font-size="12" fill="#6e7681">struct.pack('!IB', len(payload), flag) + payload · bidirectional, same framing both ways</text>

  <!-- Ruler: byte offsets -->
  <g font-family="ui-monospace, 'SF Mono', Menlo, monospace" font-size="11" fill="#6e7681">
    <text x="120" y="110" text-anchor="middle">byte 0</text>
    <text x="200" y="110" text-anchor="middle">byte 1</text>
    <text x="280" y="110" text-anchor="middle">byte 2</text>
    <text x="360" y="110" text-anchor="middle">byte 3</text>
    <text x="440" y="110" text-anchor="middle">byte 4</text>
    <text x="640" y="110" text-anchor="middle">byte 5 … N+4</text>
  </g>

  <!-- Header: 4 length bytes -->
  <g transform="translate(80, 120)">
    <!-- Length bytes -->
    <g>
      <rect x="0"   y="0" width="80" height="80" rx="8" fill="url(#lenByte)" stroke="#264773" stroke-width="1.5"/>
      <rect x="80"  y="0" width="80" height="80" rx="8" fill="url(#lenByte)" stroke="#264773" stroke-width="1.5"/>
      <rect x="160" y="0" width="80" height="80" rx="8" fill="url(#lenByte)" stroke="#264773" stroke-width="1.5"/>
      <rect x="240" y="0" width="80" height="80" rx="8" fill="url(#lenByte)" stroke="#264773" stroke-width="1.5"/>
      <text x="40"  y="46" text-anchor="middle" font-family="ui-monospace, monospace" font-size="20" font-weight="700" fill="#58a6ff">LEN</text>
      <text x="120" y="46" text-anchor="middle" font-family="ui-monospace, monospace" font-size="20" font-weight="700" fill="#58a6ff">LEN</text>
      <text x="200" y="46" text-anchor="middle" font-family="ui-monospace, monospace" font-size="20" font-weight="700" fill="#58a6ff">LEN</text>
      <text x="280" y="46" text-anchor="middle" font-family="ui-monospace, monospace" font-size="20" font-weight="700" fill="#58a6ff">LEN</text>
      <text x="40"  y="66" text-anchor="middle" font-family="ui-monospace, monospace" font-size="10" fill="#6e7681">MSB</text>
      <text x="280" y="66" text-anchor="middle" font-family="ui-monospace, monospace" font-size="10" fill="#6e7681">LSB</text>
    </g>

    <!-- Compression flag byte -->
    <rect x="320" y="0" width="80" height="80" rx="8" fill="url(#flagByte)" stroke="#7a5a2a" stroke-width="1.5"/>
    <text x="360" y="46" text-anchor="middle" font-family="ui-monospace, monospace" font-size="20" font-weight="700" fill="#d29922">FLAG</text>
    <text x="360" y="66" text-anchor="middle" font-family="ui-monospace, monospace" font-size="10" fill="#6e7681">u8</text>

    <!-- Payload (extending right) -->
    <g>
      <rect x="420" y="0" width="460" height="80" rx="8" fill="url(#payloadFill)" stroke="#2a5a36" stroke-width="1.5"/>
      <text x="650" y="42" text-anchor="middle" font-family="ui-monospace, monospace" font-size="18" font-weight="700" fill="#3fb950">PAYLOAD</text>
      <text x="650" y="62" text-anchor="middle" font-family="ui-monospace, monospace" font-size="11" fill="#8b949e">perf data (raw or zstd) · JSON command / response / metrics — per FLAG</text>
    </g>

    <!-- Right-edge fade to imply continuation -->
    <path d="M 868 6 L 878 6 L 878 74 L 868 74" stroke="#2a5a36" stroke-width="1.5" fill="none"/>
    <path d="M 878 10 L 888 14 L 878 18" stroke="#3fb950" fill="none" stroke-width="1.5"/>
    <path d="M 878 36 L 888 40 L 878 44" stroke="#3fb950" fill="none" stroke-width="1.5"/>
    <path d="M 878 62 L 888 66 L 878 70" stroke="#3fb950" fill="none" stroke-width="1.5"/>
  </g>

  <!-- Brace under header bytes -->
  <g stroke="#30363d" stroke-width="1.5" fill="none">
    <path d="M 80 216 Q 80 224 92 224 L 244 224 Q 256 224 256 232 Q 256 224 268 224 L 396 224 Q 408 224 408 216"/>
  </g>
  <text x="256" y="248" text-anchor="middle" font-family="system-ui, sans-serif" font-size="13" fill="#8b949e">
    5-byte header  ·  big-endian
  </text>

  <!-- Explanatory bullets -->
  <g font-family="ui-monospace, 'SF Mono', Menlo, monospace" font-size="13">
    <g transform="translate(80, 290)">
      <rect x="0" y="-16" width="4" height="20" rx="2" fill="#58a6ff"/>
      <text x="16" y="0" fill="#58a6ff">bytes 0–3</text>
      <text x="140" y="0" fill="#c9d1d9">payload length</text>
      <text x="16" y="18" fill="#6e7681">uint32 big-endian · length in bytes of the following payload (not including header)</text>
    </g>
    <g transform="translate(80, 332)">
      <rect x="0" y="-16" width="4" height="20" rx="2" fill="#d29922"/>
      <text x="16" y="0" fill="#d29922">byte 4</text>
      <text x="140" y="0" fill="#c9d1d9">frame type</text>
      <text x="16" y="18" fill="#6e7681">uint8 · agent → server: <tspan fill="#f0f6fc">0</tspan> raw perf data · <tspan fill="#f0f6fc">1</tspan> zstd perf data · <tspan fill="#f0f6fc">3</tspan> response / hello · <tspan fill="#f0f6fc">4</tspan> health metrics</text>
      <text x="16" y="36" fill="#6e7681">        server → agent: <tspan fill="#f0f6fc">2</tspan> command request (start · stop · pause · resume · configure · …)</text>
    </g>
    <g transform="translate(80, 392)">
      <rect x="0" y="-16" width="4" height="20" rx="2" fill="#3fb950"/>
      <text x="16" y="0" fill="#3fb950">bytes 5 … N+4</text>
      <text x="140" y="0" fill="#c9d1d9">payload body</text>
      <text x="16" y="18" fill="#6e7681">flags 0/1: perf script output (+ optional `### PERF_STAT ###` section) · typical ratio 20-40x with zstd</text>
      <text x="16" y="36" fill="#6e7681">flags 2-4: UTF-8 JSON</text>
    </g>
  </g>
</svg>
